<svg xmlns="http://www.w3.org/2000/svg" xmlns:xlink="http://www.w3.org/1999/xlink" width="500" zoomAndPan="magnify" viewBox="0 0 375 374.999991" height="500" preserveAspectRatio="xMidYMid meet" version="1.0"><rect x="-37.5" width="450" fill="#ffffff" y="-37.499999" height="449.999989" fill-opacity="1"/><rect x="-37.5" width="450" fill="#ffffff" y="-37.499999" height="449.999989" fill-opacity="1"/><path fill="#03b0f1" d="M 338.941406 189.738281 C 338.941406 192.191406 338.878906 194.644531 338.757812 197.097656 C 338.640625 199.546875 338.457031 201.996094 338.21875 204.4375 C 337.976562 206.882812 337.675781 209.316406 337.316406 211.746094 C 336.957031 214.175781 336.535156 216.59375 336.058594 219 C 335.578125 221.40625 335.042969 223.800781 334.445312 226.183594 C 333.847656 228.566406 333.195312 230.929688 332.480469 233.277344 C 331.769531 235.628906 331 237.957031 330.171875 240.269531 C 329.34375 242.582031 328.460938 244.871094 327.523438 247.136719 C 326.582031 249.40625 325.589844 251.648438 324.539062 253.871094 C 323.488281 256.089844 322.386719 258.28125 321.226562 260.445312 C 320.070312 262.609375 318.863281 264.746094 317.597656 266.851562 C 316.335938 268.957031 315.023438 271.03125 313.660156 273.070312 C 312.296875 275.113281 310.882812 277.117188 309.421875 279.089844 C 307.960938 281.0625 306.449219 282.996094 304.890625 284.894531 C 303.335938 286.792969 301.730469 288.652344 300.082031 290.46875 C 298.433594 292.289062 296.742188 294.066406 295.007812 295.800781 C 293.269531 297.539062 291.492188 299.230469 289.675781 300.878906 C 287.855469 302.527344 285.996094 304.128906 284.101562 305.6875 C 282.203125 307.246094 280.265625 308.753906 278.296875 310.214844 C 276.324219 311.679688 274.316406 313.09375 272.277344 314.457031 C 270.234375 315.820312 268.160156 317.132812 266.054688 318.394531 C 263.949219 319.65625 261.816406 320.867188 259.652344 322.023438 C 257.484375 323.179688 255.292969 324.285156 253.074219 325.332031 C 250.855469 326.382812 248.613281 327.378906 246.34375 328.316406 C 244.074219 329.257812 241.785156 330.140625 239.476562 330.964844 C 237.164062 331.792969 234.832031 332.5625 232.484375 333.277344 C 230.136719 333.988281 227.769531 334.644531 225.386719 335.238281 C 223.007812 335.835938 220.613281 336.375 218.203125 336.851562 C 215.796875 337.332031 213.378906 337.75 210.949219 338.113281 C 208.523438 338.472656 206.085938 338.773438 203.644531 339.011719 C 201.203125 339.253906 198.753906 339.433594 196.300781 339.554688 C 193.851562 339.675781 191.398438 339.734375 188.941406 339.734375 C 186.488281 339.734375 184.035156 339.675781 181.582031 339.554688 C 179.128906 339.433594 176.683594 339.253906 174.238281 339.011719 C 171.796875 338.773438 169.359375 338.472656 166.933594 338.113281 C 164.503906 337.75 162.085938 337.332031 159.679688 336.851562 C 157.269531 336.375 154.875 335.835938 152.496094 335.238281 C 150.113281 334.644531 147.75 333.988281 145.398438 333.277344 C 143.050781 332.5625 140.71875 331.792969 138.410156 330.964844 C 136.097656 330.140625 133.808594 329.257812 131.539062 328.316406 C 129.273438 327.378906 127.027344 326.382812 124.808594 325.332031 C 122.589844 324.285156 120.398438 323.179688 118.234375 322.023438 C 116.066406 320.867188 113.933594 319.65625 111.828125 318.394531 C 109.722656 317.132812 107.648438 315.820312 105.605469 314.457031 C 103.566406 313.09375 101.558594 311.679688 99.589844 310.214844 C 97.617188 308.753906 95.683594 307.246094 93.785156 305.6875 C 91.886719 304.128906 90.027344 302.527344 88.210938 300.878906 C 86.390625 299.230469 84.613281 297.539062 82.878906 295.800781 C 81.140625 294.066406 79.449219 292.289062 77.800781 290.46875 C 76.152344 288.652344 74.550781 286.792969 72.992188 284.894531 C 71.433594 282.996094 69.925781 281.0625 68.460938 279.089844 C 67 277.117188 65.585938 275.113281 64.222656 273.070312 C 62.859375 271.03125 61.546875 268.957031 60.285156 266.851562 C 59.023438 264.746094 57.8125 262.609375 56.65625 260.445312 C 55.5 258.28125 54.394531 256.089844 53.34375 253.871094 C 52.296875 251.648438 51.300781 249.40625 50.363281 247.136719 C 49.421875 244.871094 48.539062 242.582031 47.710938 240.269531 C 46.886719 237.957031 46.113281 235.628906 45.402344 233.277344 C 44.691406 230.929688 44.035156 228.566406 43.4375 226.183594 C 42.84375 223.800781 42.304688 221.40625 41.824219 219 C 41.347656 216.59375 40.925781 214.175781 40.566406 211.746094 C 40.207031 209.316406 39.90625 206.882812 39.667969 204.4375 C 39.425781 201.996094 39.246094 199.546875 39.125 197.097656 C 39.003906 194.644531 38.945312 192.191406 38.945312 189.738281 C 38.945312 187.28125 39.003906 184.828125 39.125 182.375 C 39.246094 179.925781 39.425781 177.476562 39.667969 175.035156 C 39.90625 172.589844 40.207031 170.15625 40.566406 167.726562 C 40.925781 165.300781 41.347656 162.882812 41.824219 160.472656 C 42.304688 158.066406 42.84375 155.671875 43.4375 153.289062 C 44.035156 150.910156 44.691406 148.542969 45.402344 146.195312 C 46.113281 143.84375 46.886719 141.515625 47.710938 139.203125 C 48.539062 136.894531 49.421875 134.601562 50.363281 132.335938 C 51.300781 130.066406 52.296875 127.824219 53.34375 125.605469 C 54.394531 123.386719 55.5 121.191406 56.65625 119.027344 C 57.8125 116.863281 59.023438 114.726562 60.285156 112.621094 C 61.546875 110.515625 62.859375 108.445312 64.222656 106.402344 C 65.585938 104.359375 67 102.355469 68.460938 100.382812 C 69.925781 98.410156 71.433594 96.476562 72.992188 94.578125 C 74.550781 92.679688 76.152344 90.824219 77.800781 89.003906 C 79.449219 87.183594 81.140625 85.40625 82.878906 83.671875 C 84.613281 81.9375 86.390625 80.246094 88.210938 78.59375 C 90.027344 76.945312 91.886719 75.34375 93.785156 73.785156 C 95.683594 72.230469 97.617188 70.71875 99.589844 69.257812 C 101.558594 67.792969 103.566406 66.382812 105.605469 65.019531 C 107.648438 63.652344 109.722656 62.339844 111.828125 61.078125 C 113.933594 59.816406 116.066406 58.609375 118.234375 57.449219 C 120.398438 56.292969 122.589844 55.191406 124.808594 54.140625 C 127.027344 53.089844 129.273438 52.097656 131.539062 51.15625 C 133.808594 50.21875 136.097656 49.335938 138.410156 48.507812 C 140.71875 47.679688 143.050781 46.910156 145.398438 46.199219 C 147.75 45.484375 150.113281 44.832031 152.496094 44.234375 C 154.875 43.636719 157.269531 43.101562 159.679688 42.621094 C 162.085938 42.140625 164.503906 41.722656 166.933594 41.363281 C 169.359375 41.003906 171.796875 40.703125 174.238281 40.460938 C 176.683594 40.21875 179.128906 40.039062 181.582031 39.917969 C 184.035156 39.800781 186.488281 39.738281 188.941406 39.738281 C 191.398438 39.738281 193.851562 39.800781 196.300781 39.917969 C 198.753906 40.039062 201.203125 40.21875 203.644531 40.460938 C 206.085938 40.703125 208.523438 41.003906 210.949219 41.363281 C 213.378906 41.722656 215.796875 42.140625 218.203125 42.621094 C 220.613281 43.101562 223.007812 43.636719 225.386719 44.234375 C 227.769531 44.832031 230.136719 45.484375 232.484375 46.199219 C 234.832031 46.910156 237.164062 47.679688 239.476562 48.507812 C 241.785156 49.335938 244.074219 50.21875 246.34375 51.15625 C 248.613281 52.097656 250.855469 53.089844 253.074219 54.140625 C 255.292969 55.191406 257.484375 56.292969 259.652344 57.449219 C 261.816406 58.609375 263.949219 59.816406 266.054688 61.078125 C 268.160156 62.339844 270.234375 63.652344 272.277344 65.019531 C 274.316406 66.382812 276.324219 67.792969 278.296875 69.257812 C 280.265625 70.71875 282.203125 72.230469 284.101562 73.785156 C 285.996094 75.34375 287.855469 76.945312 289.675781 78.59375 C 291.492188 80.246094 293.269531 81.9375 295.007812 83.671875 C 296.742188 85.40625 298.433594 87.183594 300.082031 89.003906 C 301.730469 90.824219 303.335938 92.679688 304.890625 94.578125 C 306.449219 96.476562 307.960938 98.410156 309.421875 100.382812 C 310.882812 102.355469 312.296875 104.359375 313.660156 106.402344 C 315.023438 108.445312 316.335938 110.515625 317.597656 112.621094 C 318.863281 114.726562 320.070312 116.863281 321.226562 119.027344 C 322.386719 121.191406 323.488281 123.386719 324.539062 125.605469 C 325.589844 127.824219 326.582031 130.066406 327.523438 132.335938 C 328.460938 134.601562 329.34375 136.894531 330.171875 139.203125 C 331 141.515625 331.769531 143.84375 332.480469 146.195312 C 333.195312 148.542969 333.847656 150.910156 334.445312 153.289062 C 335.042969 155.671875 335.578125 158.066406 336.058594 160.472656 C 336.535156 162.882812 336.957031 165.300781 337.316406 167.726562 C 337.675781 170.15625 337.976562 172.589844 338.21875 175.035156 C 338.457031 177.476562 338.640625 179.925781 338.757812 182.375 C 338.878906 184.828125 338.941406 187.28125 338.941406 189.738281 Z M 338.941406 189.738281 " fill-opacity="1" fill-rule="nonzero"/><path fill="#02408b" d="M 362.125 166.328125 C 361.960938 165.03125 361.773438 163.742188 361.578125 162.457031 C 359.273438 147.542969 355.09375 133.089844 349.144531 119.398438 C 348.359375 117.570312 347.53125 115.746094 346.671875 113.945312 C 345.972656 112.484375 345.261719 111.027344 344.519531 109.578125 C 343.777344 108.109375 343.003906 106.652344 342.207031 105.203125 C 335.832031 93.539062 328.09375 82.539062 319.070312 72.417969 C 317.871094 71.0625 316.640625 69.722656 315.386719 68.402344 C 314.253906 67.203125 313.097656 66.019531 311.917969 64.839844 C 285.503906 38.414062 252.175781 21.390625 216.019531 15.457031 C 214.601562 15.222656 213.183594 15.003906 211.757812 14.8125 C 209.242188 14.457031 206.714844 14.15625 204.171875 13.917969 C 200.972656 13.609375 197.757812 13.394531 194.53125 13.257812 L 194.523438 13.257812 C 192.023438 13.152344 189.53125 13.101562 187.019531 13.101562 C 144.136719 13.101562 103.582031 28.277344 71.5 56.113281 C 70.261719 57.179688 69.03125 58.273438 67.824219 59.386719 C 65.886719 61.15625 63.988281 62.972656 62.121094 64.839844 C 43.160156 83.800781 29.050781 106.300781 20.390625 130.855469 C 19.941406 132.125 19.503906 133.40625 19.085938 134.691406 C 18.394531 136.804688 17.742188 138.945312 17.136719 141.089844 C 16.535156 143.183594 15.980469 145.292969 15.464844 147.40625 C 12.484375 159.5625 10.789062 172.105469 10.453125 184.882812 C 10.40625 186.496094 10.382812 188.117188 10.382812 189.738281 L 10.382812 190.179688 C 10.457031 221.128906 18.441406 250.847656 33.375 277.03125 C 34.046875 278.214844 34.738281 279.386719 35.4375 280.558594 C 42.816406 292.816406 51.746094 304.261719 62.121094 314.636719 C 74.417969 326.933594 88.210938 337.195312 103.078125 345.246094 C 104.550781 346.042969 106.03125 346.816406 107.515625 347.574219 C 108.136719 347.878906 108.75 348.195312 109.382812 348.496094 C 110.625 349.109375 111.886719 349.710938 113.148438 350.289062 C 136.015625 360.820312 161.089844 366.375 187.023438 366.375 C 202.148438 366.375 216.980469 364.492188 231.25 360.820312 C 232.953125 360.386719 234.644531 359.929688 236.332031 359.433594 C 264.617188 351.261719 290.53125 336.03125 311.921875 314.632812 C 321.269531 305.285156 329.4375 295.082031 336.359375 284.1875 C 337.242188 282.800781 338.105469 281.402344 338.949219 279.992188 C 340.925781 276.667969 342.804688 273.285156 344.550781 269.84375 C 345.332031 268.320312 346.089844 266.78125 346.816406 265.234375 C 357.84375 241.929688 363.660156 216.28125 363.660156 189.734375 C 363.660156 181.839844 363.140625 174.023438 362.128906 166.324219 Z M 341.925781 266.703125 C 341.160156 268.230469 340.375 269.757812 339.5625 271.269531 C 338.820312 272.652344 338.0625 274.03125 337.277344 275.398438 C 336.460938 276.832031 335.625 278.25 334.765625 279.652344 C 327.667969 291.265625 319.136719 302.121094 309.269531 311.988281 C 289.230469 332.027344 265.128906 346.546875 238.832031 354.761719 C 237.144531 355.292969 235.449219 355.796875 233.746094 356.277344 C 218.726562 360.464844 203.039062 362.625 187.019531 362.625 C 161.03125 362.625 135.917969 356.929688 113.105469 346.132812 C 112.742188 345.960938 112.390625 345.789062 112.039062 345.613281 C 111.140625 345.1875 110.246094 344.746094 109.351562 344.296875 C 108.75 343.996094 108.152344 343.6875 107.558594 343.371094 C 91.96875 335.292969 77.546875 324.757812 64.773438 311.988281 C 55.011719 302.226562 46.5625 291.507812 39.515625 280.035156 C 38.796875 278.871094 38.101562 277.699219 37.410156 276.523438 C 22.898438 251.597656 14.863281 223.335938 14.179688 193.835938 C 14.152344 192.46875 14.136719 191.105469 14.136719 189.738281 C 14.136719 189.339844 14.136719 188.9375 14.144531 188.539062 C 14.25 173.015625 16.378906 157.816406 20.429688 143.246094 C 20.992188 141.1875 21.601562 139.148438 22.253906 137.113281 C 22.265625 137.070312 22.28125 137.015625 22.296875 136.964844 C 22.6875 135.734375 23.101562 134.511719 23.519531 133.289062 C 31.953125 108.792969 45.914062 86.351562 64.769531 67.488281 C 67.328125 64.929688 69.960938 62.453125 72.648438 60.085938 C 73.878906 58.988281 75.125 57.925781 76.386719 56.871094 C 107.394531 30.957031 146.125 16.851562 187.023438 16.851562 C 192.402344 16.851562 197.734375 17.09375 203.023438 17.578125 L 203.03125 17.578125 C 205.074219 17.761719 207.09375 17.984375 209.109375 18.238281 C 210.070312 18.359375 211.023438 18.488281 211.976562 18.628906 C 212.441406 18.699219 212.90625 18.765625 213.371094 18.839844 C 249.542969 24.332031 282.914062 41.128906 309.273438 67.488281 C 311.328125 69.542969 313.316406 71.636719 315.25 73.777344 C 316.464844 75.109375 317.652344 76.460938 318.816406 77.828125 C 327.25 87.722656 334.464844 98.429688 340.394531 109.757812 C 340.65625 110.269531 340.925781 110.777344 341.179688 111.296875 C 341.660156 112.226562 342.132812 113.171875 342.589844 114.109375 C 343.011719 114.980469 343.421875 115.84375 343.835938 116.722656 C 350.796875 131.652344 355.578125 147.558594 358.023438 164.042969 C 358.210938 165.324219 358.390625 166.613281 358.546875 167.914062 C 359.449219 175.09375 359.90625 182.386719 359.90625 189.738281 C 359.90625 216.890625 353.6875 243.09375 341.929688 266.703125 Z M 341.925781 266.703125 " fill-opacity="1" fill-rule="nonzero"/><path fill="#02408b" d="M 332.324219 273.160156 C 333.171875 275.328125 333.980469 277.492188 334.761719 279.652344 C 335.308594 281.164062 335.839844 282.683594 336.351562 284.191406 C 337.234375 282.800781 338.097656 281.40625 338.941406 279.996094 C 338.398438 278.457031 337.84375 276.925781 337.273438 275.394531 C 336.878906 274.332031 336.472656 273.265625 336.058594 272.207031 C 335.609375 271.03125 335.144531 269.859375 334.671875 268.695312 C 323.621094 241.296875 307.738281 214.40625 287.789062 189.203125 C 286.976562 188.175781 286.160156 187.148438 285.335938 186.125 C 285.261719 186.042969 285.191406 185.953125 285.132812 185.871094 C 284.839844 185.519531 284.546875 185.15625 284.253906 184.804688 C 283.828125 184.28125 283.402344 183.753906 282.964844 183.230469 C 282.90625 183.15625 282.839844 183.082031 282.777344 183 C 282.476562 182.636719 282.171875 182.269531 281.871094 181.910156 C 280.984375 180.84375 280.085938 179.78125 279.183594 178.722656 C 267.585938 165.117188 254.785156 152.078125 240.917969 139.804688 C 218.660156 120.101562 194.785156 103.363281 170.167969 90.03125 C 169.050781 89.421875 167.933594 88.824219 166.804688 88.230469 C 165.652344 87.613281 164.496094 87.015625 163.332031 86.421875 C 161.3125 85.386719 159.285156 84.367188 157.253906 83.375 C 130.605469 70.359375 103.285156 61.339844 76.382812 56.867188 C 74.753906 56.597656 73.125 56.34375 71.496094 56.109375 C 70.261719 57.175781 69.03125 58.269531 67.820312 59.382812 C 68.390625 59.464844 68.96875 59.539062 69.539062 59.625 C 70.574219 59.765625 71.609375 59.921875 72.644531 60.082031 C 98.492188 64.035156 124.78125 72.28125 150.523438 84.316406 C 152.554688 85.265625 154.589844 86.242188 156.613281 87.242188 C 159.480469 88.652344 162.332031 90.109375 165.183594 91.617188 C 166.308594 92.207031 167.433594 92.808594 168.554688 93.421875 C 192.855469 106.597656 216.433594 123.140625 238.433594 142.621094 C 253.34375 155.816406 266.855469 169.800781 278.898438 184.273438 C 279.007812 184.394531 279.105469 184.515625 279.203125 184.636719 C 279.746094 185.28125 280.277344 185.933594 280.800781 186.578125 C 280.816406 186.59375 280.832031 186.609375 280.839844 186.621094 C 280.988281 186.800781 281.140625 186.988281 281.28125 187.171875 C 281.828125 187.828125 282.363281 188.488281 282.894531 189.15625 C 283.042969 189.335938 283.1875 189.515625 283.335938 189.703125 C 283.40625 189.789062 283.480469 189.878906 283.539062 189.96875 C 304.042969 215.632812 319.980469 242.710938 330.925781 269.648438 C 331.398438 270.816406 331.863281 271.988281 332.320312 273.160156 Z M 332.324219 273.160156 " fill-opacity="1" fill-rule="nonzero"/><path fill="#02408b" d="M 210.726562 22.320312 C 232.117188 36.644531 249.246094 58.363281 261.054688 86.078125 C 261.632812 87.4375 262.195312 88.808594 262.75 90.191406 C 266.769531 100.273438 270.109375 111.101562 272.71875 122.625 C 276.765625 140.484375 278.902344 159.296875 279.179688 178.722656 C 279.210938 180.484375 279.21875 182.257812 279.203125 184.027344 C 279.210938 184.230469 279.210938 184.433594 279.203125 184.636719 C 279.203125 185.386719 279.195312 186.140625 279.1875 186.898438 C 279.179688 187.539062 279.164062 188.183594 279.148438 188.820312 C 279.148438 189.039062 279.148438 189.261719 279.136719 189.480469 L 279.136719 189.515625 C 279.136719 189.914062 279.128906 190.304688 279.113281 190.703125 C 279.058594 192.914062 278.984375 195.128906 278.878906 197.347656 C 277.679688 223.804688 273.15625 251.105469 265.390625 278.335938 C 265.03125 279.59375 264.667969 280.847656 264.292969 282.109375 C 261.539062 291.421875 258.40625 300.714844 254.894531 309.964844 C 248.726562 326.222656 241.621094 341.695312 233.742188 356.273438 C 232.917969 357.796875 232.085938 359.3125 231.246094 360.820312 C 232.949219 360.382812 234.636719 359.925781 236.324219 359.433594 C 237.171875 357.886719 238.003906 356.324219 238.828125 354.757812 C 246.121094 340.90625 252.671875 326.375 258.398438 311.296875 C 262.089844 301.570312 265.367188 291.789062 268.234375 281.988281 C 268.609375 280.722656 268.96875 279.453125 269.320312 278.191406 L 269.328125 278.191406 C 277.640625 248.667969 282.195312 219.0625 282.871094 190.523438 C 282.878906 190.371094 282.878906 190.230469 282.878906 190.078125 C 282.886719 189.773438 282.894531 189.464844 282.894531 189.15625 C 282.925781 188.191406 282.9375 187.222656 282.945312 186.261719 L 282.945312 185.855469 C 282.953125 184.976562 282.960938 184.101562 282.960938 183.230469 L 282.960938 182.660156 C 282.960938 182.117188 282.960938 181.570312 282.945312 181.03125 C 282.820312 160.511719 280.636719 140.621094 276.375 121.796875 C 273.914062 110.925781 270.816406 100.652344 267.117188 91.035156 L 267.109375 91.035156 C 266.578125 89.640625 266.019531 88.25 265.457031 86.886719 C 253.371094 57.46875 235.5 34.441406 213 19.316406 C 212.65625 19.082031 212.316406 18.851562 211.972656 18.625 C 211.265625 18.160156 210.5625 17.710938 209.851562 17.269531 C 207.988281 16.089844 206.089844 14.972656 204.171875 13.914062 C 200.972656 13.605469 197.757812 13.390625 194.53125 13.253906 C 197.425781 14.574219 200.253906 16.015625 203.023438 17.578125 L 203.03125 17.578125 C 204.566406 18.4375 206.078125 19.332031 207.570312 20.269531 C 208.636719 20.929688 209.683594 21.613281 210.730469 22.316406 Z M 210.726562 22.320312 " fill-opacity="1" fill-rule="nonzero"/><path fill="#02408b" d="M 343.367188 112.332031 C 342.640625 111.980469 341.910156 111.632812 341.175781 111.296875 C 340.78125 111.101562 340.382812 110.914062 339.976562 110.726562 C 335.210938 108.511719 330.367188 106.410156 325.4375 104.433594 C 322.351562 103.195312 319.238281 101.996094 316.09375 100.84375 C 314.902344 100.410156 313.710938 99.984375 312.507812 99.5625 C 297.40625 94.25 281.664062 90.003906 265.457031 86.890625 C 263.996094 86.605469 262.53125 86.335938 261.054688 86.082031 C 250.0625 84.117188 238.855469 82.667969 227.492188 81.765625 C 209.523438 80.34375 191.71875 80.3125 174.308594 81.640625 C 172.824219 81.75 171.34375 81.871094 169.867188 82.007812 C 165.640625 82.382812 161.433594 82.839844 157.253906 83.378906 C 155.003906 83.664062 152.761719 83.980469 150.523438 84.316406 C 109.914062 90.410156 72.054688 104.050781 39.882812 124.585938 C 34.824219 127.8125 29.96875 131.171875 25.324219 134.652344 C 24.304688 135.417969 23.292969 136.183594 22.292969 136.964844 C 22.25 136.992188 22.210938 137.023438 22.171875 137.054688 C 20.464844 138.378906 18.78125 139.726562 17.132812 141.089844 C 16.53125 143.183594 15.976562 145.292969 15.460938 147.40625 C 17.078125 146.003906 18.738281 144.609375 20.425781 143.242188 C 22.023438 141.929688 23.652344 140.648438 25.304688 139.371094 C 26.351562 138.5625 27.417969 137.757812 28.492188 136.96875 C 32.785156 133.78125 37.257812 130.707031 41.902344 127.742188 C 75.085938 106.5625 114.421875 92.808594 156.617188 87.242188 C 158.847656 86.941406 161.089844 86.671875 163.332031 86.425781 C 164.855469 86.257812 166.378906 86.09375 167.910156 85.953125 C 169.386719 85.808594 170.867188 85.675781 172.351562 85.554688 C 181.445312 84.804688 190.644531 84.421875 199.921875 84.421875 C 209.203125 84.421875 218.058594 84.78125 227.203125 85.5 C 239.25 86.460938 251.121094 88.03125 262.75 90.191406 C 264.207031 90.460938 265.664062 90.746094 267.109375 91.039062 L 267.117188 91.039062 C 282.519531 94.109375 297.472656 98.210938 311.84375 103.304688 C 313.035156 103.726562 314.226562 104.152344 315.414062 104.59375 C 323.285156 107.484375 330.96875 110.671875 338.441406 114.152344 C 339.582031 114.679688 340.707031 115.210938 341.832031 115.75 C 342.5 116.074219 343.167969 116.394531 343.835938 116.71875 C 345.621094 117.597656 347.390625 118.488281 349.148438 119.398438 C 348.359375 117.566406 347.535156 115.742188 346.671875 113.945312 C 345.578125 113.394531 344.484375 112.863281 343.371094 112.332031 Z M 343.367188 112.332031 " fill-opacity="1" fill-rule="nonzero"/><path fill="#02408b" d="M 213 19.320312 C 213.117188 19.164062 213.246094 18.996094 213.367188 18.839844 C 214.242188 17.699219 215.128906 16.574219 216.015625 15.457031 C 214.597656 15.222656 213.179688 15.003906 211.753906 14.8125 C 211.117188 15.628906 210.476562 16.445312 209.847656 17.269531 C 209.601562 17.59375 209.351562 17.914062 209.105469 18.238281 C 208.59375 18.914062 208.078125 19.589844 207.566406 20.269531 C 193.84375 38.585938 181.203125 59.339844 169.867188 82.003906 C 169.207031 83.308594 168.554688 84.628906 167.910156 85.949219 C 167.542969 86.707031 167.167969 87.464844 166.808594 88.230469 C 166.261719 89.347656 165.71875 90.480469 165.1875 91.613281 C 152.011719 119.464844 140.757812 149.960938 131.84375 182.203125 C 131.507812 183.425781 131.167969 184.65625 130.839844 185.886719 C 127.679688 197.570312 124.835938 209.46875 122.308594 221.546875 C 120.15625 231.871094 118.265625 242.164062 116.644531 252.414062 C 116.441406 253.6875 116.246094 254.972656 116.058594 256.25 C 115.804688 257.914062 115.554688 259.574219 115.324219 261.238281 C 115.121094 262.582031 114.933594 263.929688 114.753906 265.273438 C 111.144531 291.660156 109.34375 317.605469 109.34375 342.597656 C 109.34375 343.167969 109.34375 343.730469 109.351562 344.292969 C 109.351562 345.125 109.351562 345.949219 109.367188 346.777344 C 109.367188 347.355469 109.375 347.925781 109.382812 348.496094 C 110.625 349.109375 111.886719 349.710938 113.148438 350.289062 C 113.125 348.90625 113.109375 347.519531 113.105469 346.128906 C 113.097656 345.800781 113.097656 345.46875 113.097656 345.140625 C 113.089844 343.738281 113.089844 342.332031 113.097656 340.929688 C 113.171875 316.132812 115.039062 290.398438 118.679688 264.230469 C 118.867188 262.886719 119.0625 261.535156 119.253906 260.1875 C 119.382812 259.332031 119.511719 258.476562 119.636719 257.613281 C 119.832031 256.335938 120.027344 255.0625 120.230469 253.785156 C 121.867188 243.339844 123.789062 232.835938 125.984375 222.3125 C 128.511719 210.203125 131.363281 198.324219 134.507812 186.726562 C 134.839844 185.496094 135.175781 184.265625 135.519531 183.042969 C 144.480469 150.757812 155.6875 120.625 168.554688 93.421875 C 169.078125 92.289062 169.621094 91.15625 170.167969 90.027344 C 170.886719 88.527344 171.613281 87.035156 172.351562 85.546875 C 173.003906 84.234375 173.65625 82.929688 174.308594 81.632812 C 185.472656 59.574219 197.730469 39.65625 210.726562 22.3125 C 211.476562 21.300781 212.234375 20.304688 213 19.3125 Z M 213 19.320312 " fill-opacity="1" fill-rule="nonzero"/><path fill="#02408b" d="M 362.125 166.328125 C 361.960938 165.03125 361.773438 163.742188 361.578125 162.457031 C 360.398438 162.996094 359.214844 163.523438 358.019531 164.039062 C 335.664062 173.808594 311.234375 181.128906 285.507812 185.804688 C 285.378906 185.835938 285.257812 185.859375 285.132812 185.871094 C 284.402344 186.007812 283.675781 186.136719 282.949219 186.261719 C 282.730469 186.300781 282.507812 186.34375 282.289062 186.375 C 281.808594 186.464844 281.320312 186.546875 280.839844 186.621094 C 280.820312 186.628906 280.789062 186.636719 280.765625 186.636719 C 280.242188 186.726562 279.714844 186.816406 279.191406 186.898438 C 277.644531 187.15625 276.09375 187.394531 274.539062 187.628906 C 255.945312 190.425781 236.75 191.859375 217.210938 191.859375 C 188.664062 191.859375 161.1875 188.761719 135.519531 183.042969 C 134.292969 182.765625 133.070312 182.488281 131.84375 182.203125 C 91.953125 172.863281 56.570312 157.167969 28.496094 136.96875 C 27.429688 136.203125 26.371094 135.429688 25.328125 134.652344 C 24.71875 134.203125 24.121094 133.742188 23.519531 133.285156 C 22.460938 132.484375 21.421875 131.671875 20.390625 130.855469 C 19.941406 132.125 19.503906 133.40625 19.085938 134.691406 C 20.105469 135.484375 21.132812 136.273438 22.175781 137.054688 C 22.199219 137.074219 22.230469 137.097656 22.253906 137.113281 C 23.257812 137.871094 24.277344 138.628906 25.308594 139.371094 C 28.015625 141.335938 30.804688 143.273438 33.664062 145.171875 C 61.578125 163.679688 94.699219 177.453125 130.839844 185.886719 C 132.0625 186.171875 133.285156 186.457031 134.511719 186.726562 C 160.824219 192.570312 188.667969 195.609375 217.214844 195.609375 C 234.527344 195.609375 251.589844 194.492188 268.203125 192.300781 C 270.835938 191.964844 273.453125 191.589844 276.058594 191.183594 C 276.839844 191.070312 277.617188 190.953125 278.390625 190.824219 C 278.636719 190.785156 278.878906 190.75 279.117188 190.703125 C 280.378906 190.507812 281.628906 190.300781 282.886719 190.082031 C 282.976562 190.066406 283.066406 190.050781 283.15625 190.035156 C 283.289062 190.015625 283.417969 189.992188 283.546875 189.96875 C 284.960938 189.722656 286.382812 189.46875 287.792969 189.203125 C 312.84375 184.53125 336.65625 177.375 358.550781 167.910156 C 359.75 167.394531 360.941406 166.863281 362.128906 166.328125 Z M 362.125 166.328125 " fill-opacity="1" fill-rule="nonzero"/><path fill="#02408b" d="M 334.671875 268.695312 C 333.425781 269.019531 332.179688 269.34375 330.925781 269.648438 C 311.367188 274.453125 290.6875 277.308594 269.328125 278.195312 L 269.320312 278.195312 C 268.015625 278.253906 266.703125 278.300781 265.390625 278.339844 C 248.855469 278.839844 231.933594 278.171875 214.835938 276.3125 C 214.175781 276.238281 213.515625 276.164062 212.855469 276.089844 C 211.886719 275.984375 210.921875 275.863281 209.945312 275.742188 C 199.65625 274.5 189.3125 272.816406 178.949219 270.703125 C 164.09375 267.667969 149.710938 263.84375 135.890625 259.3125 C 133.824219 258.636719 131.773438 257.949219 129.734375 257.234375 C 126.527344 256.125 123.363281 254.976562 120.226562 253.789062 C 119.027344 253.339844 117.835938 252.875 116.640625 252.417969 C 75.796875 236.476562 40.71875 214.28125 14.136719 188.539062 C 12.886719 187.332031 11.65625 186.117188 10.445312 184.886719 C 10.402344 186.5 10.378906 188.121094 10.378906 189.742188 L 10.378906 190.183594 C 11.628906 191.414062 12.890625 192.628906 14.175781 193.835938 C 41.695312 219.730469 76.613281 241.023438 116.054688 256.253906 C 117.238281 256.71875 118.441406 257.175781 119.632812 257.617188 C 120.910156 258.097656 122.183594 258.570312 123.460938 259.027344 C 125.492188 259.761719 127.535156 260.484375 129.582031 261.179688 C 145.21875 266.542969 161.476562 270.964844 178.203125 274.378906 C 187.59375 276.289062 196.980469 277.859375 206.324219 279.066406 C 207.957031 279.285156 209.601562 279.488281 211.238281 279.675781 C 225.90625 281.390625 240.453125 282.246094 254.761719 282.246094 C 257.953125 282.246094 261.132812 282.203125 264.296875 282.113281 C 265.609375 282.082031 266.925781 282.046875 268.238281 281.992188 C 290.476562 281.144531 312 278.1875 332.328125 273.160156 C 333.578125 272.855469 334.828125 272.539062 336.0625 272.207031 C 337.234375 271.910156 338.402344 271.59375 339.566406 271.269531 C 341.242188 270.8125 342.898438 270.339844 344.550781 269.847656 C 345.328125 268.324219 346.085938 266.785156 346.816406 265.238281 C 345.195312 265.742188 343.566406 266.230469 341.929688 266.703125 C 339.53125 267.398438 337.113281 268.066406 334.675781 268.695312 Z M 334.671875 268.695312 " fill-opacity="1" fill-rule="nonzero"/><path fill="#02408b" d="M 315.410156 104.597656 C 315.65625 103.34375 315.882812 102.089844 316.09375 100.84375 C 317.449219 93.003906 318.359375 85.328125 318.808594 77.828125 C 318.921875 76.011719 319.003906 74.210938 319.066406 72.417969 C 317.863281 71.0625 316.636719 69.722656 315.378906 68.402344 C 315.367188 70.179688 315.320312 71.976562 315.246094 73.777344 C 314.921875 82.140625 314.007812 90.746094 312.507812 99.5625 C 312.304688 100.808594 312.082031 102.054688 311.839844 103.308594 C 311.1875 106.828125 310.4375 110.382812 309.589844 113.960938 C 304.382812 136.039062 295.898438 158.175781 284.507812 179.761719 C 284 180.726562 283.480469 181.695312 282.964844 182.664062 L 282.964844 182.6875 C 282.894531 182.800781 282.835938 182.890625 282.777344 183 C 282.125 184.195312 281.472656 185.386719 280.804688 186.582031 C 280.796875 186.605469 280.78125 186.617188 280.765625 186.640625 C 280.457031 187.195312 280.152344 187.742188 279.835938 188.296875 C 279.605469 188.703125 279.371094 189.078125 279.140625 189.484375 L 279.140625 189.519531 C 278.890625 189.957031 278.644531 190.390625 278.390625 190.828125 C 261.179688 220.550781 238.480469 248.988281 211.335938 274.457031 C 210.878906 274.894531 210.414062 275.320312 209.949219 275.742188 C 208.75 276.867188 207.539062 277.976562 206.324219 279.066406 C 176.9375 305.707031 145.078125 326.460938 113.097656 340.933594 C 111.84375 341.496094 110.597656 342.058594 109.34375 342.597656 C 108.75 342.859375 108.160156 343.117188 107.558594 343.371094 C 106.066406 344.015625 104.574219 344.644531 103.078125 345.246094 C 104.550781 346.039062 106.03125 346.8125 107.515625 347.570312 C 108.128906 347.308594 108.75 347.046875 109.367188 346.777344 C 110.257812 346.394531 111.144531 346.011719 112.035156 345.613281 C 112.390625 345.464844 112.742188 345.304688 113.09375 345.140625 C 147.472656 329.804688 180.964844 307.574219 211.238281 279.671875 C 212.128906 278.855469 213.015625 278.027344 213.898438 277.195312 C 214.214844 276.902344 214.53125 276.601562 214.835938 276.308594 C 240.421875 252.148438 262.050781 225.367188 278.882812 197.351562 C 280.246094 195.085938 281.578125 192.804688 282.875 190.523438 C 282.972656 190.359375 283.0625 190.203125 283.152344 190.035156 C 283.21875 189.925781 283.277344 189.820312 283.339844 189.707031 C 284.015625 188.515625 284.671875 187.320312 285.332031 186.128906 C 285.394531 186.023438 285.453125 185.910156 285.507812 185.804688 C 286.167969 184.605469 286.820312 183.398438 287.449219 182.1875 C 289 179.277344 290.503906 176.351562 291.941406 173.410156 C 301.425781 154.121094 308.605469 134.445312 313.234375 114.820312 C 314.046875 111.382812 314.773438 107.980469 315.410156 104.59375 Z M 315.410156 104.597656 " fill-opacity="1" fill-rule="nonzero"/><path fill="#02408b" d="M 340.386719 109.757812 C 340.253906 110.082031 340.117188 110.402344 339.976562 110.726562 C 339.488281 111.867188 338.96875 113.015625 338.4375 114.15625 C 336.898438 117.457031 335.1875 120.765625 333.304688 124.074219 C 323.605469 141.128906 309.738281 157.664062 291.941406 173.414062 C 289.535156 175.550781 287.058594 177.667969 284.507812 179.761719 C 283.992188 180.195312 283.472656 180.613281 282.949219 181.035156 C 282.589844 181.335938 282.230469 181.628906 281.867188 181.914062 C 280.992188 182.625 280.097656 183.328125 279.203125 184.027344 C 279.097656 184.109375 279 184.191406 278.898438 184.273438 C 277.472656 185.390625 276.015625 186.515625 274.539062 187.628906 C 274.261719 187.839844 273.984375 188.050781 273.703125 188.257812 C 271.890625 189.617188 270.058594 190.96875 268.199219 192.304688 C 230.339844 219.53125 182.765625 241.734375 129.734375 257.234375 C 127.65625 257.839844 125.5625 258.441406 123.464844 259.027344 C 122.066406 259.414062 120.664062 259.804688 119.253906 260.1875 C 117.949219 260.546875 116.632812 260.894531 115.320312 261.238281 C 96.023438 266.347656 76.082031 270.578125 55.683594 273.859375 C 49.558594 274.839844 43.46875 275.726562 37.40625 276.523438 C 36.054688 276.695312 34.710938 276.867188 33.367188 277.03125 C 34.042969 278.21875 34.734375 279.386719 35.429688 280.558594 C 36.789062 280.386719 38.152344 280.214844 39.511719 280.035156 C 45.085938 279.285156 50.675781 278.46875 56.28125 277.566406 C 76.261719 274.355469 95.8125 270.238281 114.75 265.277344 C 116.0625 264.933594 117.367188 264.589844 118.671875 264.234375 C 122.335938 263.246094 125.972656 262.234375 129.582031 261.183594 C 131.695312 260.574219 133.796875 259.953125 135.890625 259.3125 C 189.890625 242.988281 238.078125 219.714844 275.953125 191.265625 C 275.980469 191.242188 276.019531 191.210938 276.046875 191.191406 C 277.089844 190.410156 278.125 189.621094 279.148438 188.828125 C 279.375 188.65625 279.605469 188.484375 279.832031 188.300781 C 280.316406 187.925781 280.796875 187.550781 281.277344 187.175781 C 281.617188 186.914062 281.945312 186.652344 282.28125 186.382812 C 282.5 186.210938 282.726562 186.039062 282.941406 185.863281 C 283.386719 185.511719 283.820312 185.167969 284.25 184.816406 C 285.328125 183.953125 286.394531 183.082031 287.445312 182.199219 C 308.933594 164.398438 325.421875 145.515625 336.558594 125.933594 C 338.484375 122.542969 340.242188 119.152344 341.824219 115.761719 C 342.082031 115.214844 342.335938 114.664062 342.582031 114.117188 C 342.84375 113.527344 343.109375 112.933594 343.363281 112.339844 C 343.761719 111.425781 344.144531 110.503906 344.511719 109.585938 C 343.769531 108.117188 342.996094 106.660156 342.199219 105.210938 C 341.628906 106.726562 341.03125 108.25 340.386719 109.765625 Z M 340.386719 109.757812 " fill-opacity="1" fill-rule="nonzero"/><path fill="#02408b" d="M 311.074219 187.039062 C 311.074219 187.898438 311.03125 188.757812 310.949219 189.613281 C 310.863281 190.46875 310.738281 191.316406 310.570312 192.160156 C 310.402344 193.003906 310.191406 193.835938 309.945312 194.660156 C 309.695312 195.484375 309.40625 196.292969 309.074219 197.085938 C 308.746094 197.878906 308.378906 198.65625 307.972656 199.414062 C 307.570312 200.171875 307.128906 200.910156 306.648438 201.625 C 306.171875 202.339844 305.660156 203.027344 305.117188 203.691406 C 304.570312 204.355469 303.992188 204.992188 303.386719 205.601562 C 302.777344 206.207031 302.140625 206.785156 301.476562 207.332031 C 300.8125 207.875 300.121094 208.386719 299.410156 208.863281 C 298.695312 209.34375 297.957031 209.785156 297.199219 210.1875 C 296.441406 210.59375 295.664062 210.960938 294.871094 211.289062 C 294.074219 211.621094 293.269531 211.910156 292.445312 212.160156 C 291.621094 212.40625 290.789062 212.617188 289.945312 212.785156 C 289.101562 212.953125 288.253906 213.078125 287.398438 213.164062 C 286.542969 213.246094 285.683594 213.289062 284.824219 213.289062 C 283.964844 213.289062 283.109375 213.246094 282.253906 213.164062 C 281.398438 213.078125 280.546875 212.953125 279.703125 212.785156 C 278.863281 212.617188 278.027344 212.40625 277.207031 212.160156 C 276.382812 211.910156 275.574219 211.621094 274.78125 211.289062 C 273.988281 210.960938 273.210938 210.59375 272.453125 210.1875 C 271.695312 209.785156 270.957031 209.34375 270.242188 208.863281 C 269.527344 208.386719 268.839844 207.875 268.175781 207.332031 C 267.507812 206.785156 266.875 206.207031 266.265625 205.601562 C 265.65625 204.992188 265.082031 204.355469 264.535156 203.691406 C 263.988281 203.027344 263.480469 202.339844 263 201.625 C 262.523438 200.910156 262.082031 200.171875 261.675781 199.414062 C 261.273438 198.65625 260.90625 197.878906 260.574219 197.085938 C 260.246094 196.292969 259.957031 195.484375 259.707031 194.660156 C 259.457031 193.835938 259.25 193.003906 259.082031 192.160156 C 258.914062 191.316406 258.789062 190.46875 258.703125 189.613281 C 258.621094 188.757812 258.578125 187.898438 258.578125 187.039062 C 258.578125 186.179688 258.621094 185.324219 258.703125 184.46875 C 258.789062 183.613281 258.914062 182.761719 259.082031 181.917969 C 259.25 181.078125 259.457031 180.242188 259.707031 179.421875 C 259.957031 178.597656 260.246094 177.789062 260.574219 176.996094 C 260.90625 176.203125 261.273438 175.425781 261.675781 174.667969 C 262.082031 173.910156 262.523438 173.171875 263 172.457031 C 263.480469 171.742188 263.988281 171.054688 264.535156 170.390625 C 265.082031 169.722656 265.65625 169.089844 266.265625 168.480469 C 266.875 167.871094 267.507812 167.296875 268.175781 166.75 C 268.839844 166.207031 269.527344 165.695312 270.242188 165.214844 C 270.957031 164.738281 271.695312 164.296875 272.453125 163.890625 C 273.210938 163.488281 273.988281 163.121094 274.78125 162.789062 C 275.574219 162.460938 276.382812 162.171875 277.207031 161.921875 C 278.027344 161.671875 278.863281 161.464844 279.703125 161.296875 C 280.546875 161.128906 281.398438 161.003906 282.253906 160.917969 C 283.109375 160.835938 283.964844 160.792969 284.824219 160.792969 C 285.683594 160.792969 286.542969 160.835938 287.398438 160.917969 C 288.253906 161.003906 289.101562 161.128906 289.945312 161.296875 C 290.789062 161.464844 291.621094 161.671875 292.445312 161.921875 C 293.269531 162.171875 294.074219 162.460938 294.871094 162.789062 C 295.664062 163.121094 296.441406 163.488281 297.199219 163.890625 C 297.957031 164.296875 298.695312 164.738281 299.410156 165.214844 C 300.121094 165.695312 300.8125 166.207031 301.476562 166.75 C 302.140625 167.296875 302.777344 167.871094 303.386719 168.480469 C 303.992188 169.089844 304.570312 169.722656 305.117188 170.390625 C 305.660156 171.054688 306.171875 171.742188 306.648438 172.457031 C 307.128906 173.171875 307.570312 173.910156 307.972656 174.667969 C 308.378906 175.425781 308.746094 176.203125 309.074219 176.996094 C 309.40625 177.789062 309.695312 178.597656 309.945312 179.421875 C 310.191406 180.242188 310.402344 181.078125 310.570312 181.917969 C 310.738281 182.761719 310.863281 183.613281 310.949219 184.46875 C 311.03125 185.324219 311.074219 186.179688 311.074219 187.039062 Z M 311.074219 187.039062 " fill-opacity="1" fill-rule="nonzero"/><path fill="#02408b" d="M 151.472656 182.550781 C 151.472656 183.101562 151.445312 183.65625 151.390625 184.207031 C 151.339844 184.753906 151.257812 185.300781 151.148438 185.84375 C 151.042969 186.386719 150.90625 186.921875 150.746094 187.453125 C 150.585938 187.980469 150.398438 188.5 150.1875 189.011719 C 149.976562 189.523438 149.742188 190.023438 149.480469 190.511719 C 149.21875 191 148.933594 191.472656 148.628906 191.933594 C 148.320312 192.390625 147.992188 192.835938 147.640625 193.265625 C 147.289062 193.691406 146.917969 194.101562 146.527344 194.492188 C 146.136719 194.882812 145.726562 195.253906 145.300781 195.605469 C 144.871094 195.957031 144.429688 196.285156 143.96875 196.59375 C 143.507812 196.898438 143.035156 197.183594 142.546875 197.445312 C 142.058594 197.703125 141.558594 197.941406 141.046875 198.152344 C 140.539062 198.363281 140.015625 198.550781 139.488281 198.710938 C 138.957031 198.871094 138.421875 199.003906 137.878906 199.113281 C 137.335938 199.222656 136.792969 199.300781 136.242188 199.355469 C 135.691406 199.410156 135.140625 199.4375 134.585938 199.4375 C 134.03125 199.4375 133.480469 199.410156 132.929688 199.355469 C 132.378906 199.300781 131.832031 199.222656 131.289062 199.113281 C 130.75 199.003906 130.210938 198.871094 129.683594 198.710938 C 129.152344 198.550781 128.632812 198.363281 128.121094 198.152344 C 127.613281 197.941406 127.113281 197.703125 126.625 197.445312 C 126.136719 197.183594 125.664062 196.898438 125.203125 196.59375 C 124.742188 196.285156 124.300781 195.957031 123.871094 195.605469 C 123.445312 195.253906 123.035156 194.882812 122.644531 194.492188 C 122.253906 194.101562 121.882812 193.691406 121.53125 193.265625 C 121.179688 192.835938 120.851562 192.390625 120.542969 191.933594 C 120.238281 191.472656 119.953125 191 119.691406 190.511719 C 119.429688 190.023438 119.195312 189.523438 118.984375 189.011719 C 118.769531 188.5 118.585938 187.980469 118.425781 187.453125 C 118.265625 186.921875 118.128906 186.386719 118.023438 185.84375 C 117.914062 185.300781 117.832031 184.753906 117.777344 184.207031 C 117.722656 183.65625 117.699219 183.101562 117.699219 182.550781 C 117.699219 181.996094 117.722656 181.445312 117.777344 180.894531 C 117.832031 180.34375 117.914062 179.796875 118.023438 179.253906 C 118.128906 178.710938 118.265625 178.175781 118.425781 177.648438 C 118.585938 177.117188 118.769531 176.597656 118.984375 176.085938 C 119.195312 175.574219 119.429688 175.078125 119.691406 174.589844 C 119.953125 174.101562 120.238281 173.628906 120.542969 173.167969 C 120.851562 172.707031 121.179688 172.265625 121.53125 171.835938 C 121.882812 171.410156 122.253906 171 122.644531 170.609375 C 123.035156 170.21875 123.445312 169.847656 123.871094 169.496094 C 124.300781 169.144531 124.742188 168.816406 125.203125 168.507812 C 125.664062 168.199219 126.136719 167.917969 126.625 167.65625 C 127.113281 167.394531 127.613281 167.160156 128.121094 166.949219 C 128.632812 166.734375 129.152344 166.550781 129.683594 166.390625 C 130.210938 166.226562 130.75 166.09375 131.289062 165.988281 C 131.832031 165.878906 132.378906 165.796875 132.929688 165.742188 C 133.480469 165.6875 134.03125 165.660156 134.585938 165.660156 C 135.140625 165.660156 135.691406 165.6875 136.242188 165.742188 C 136.792969 165.796875 137.335938 165.878906 137.878906 165.988281 C 138.421875 166.09375 138.957031 166.226562 139.488281 166.390625 C 140.015625 166.550781 140.539062 166.734375 141.046875 166.949219 C 141.558594 167.160156 142.058594 167.394531 142.546875 167.65625 C 143.035156 167.917969 143.507812 168.199219 143.96875 168.507812 C 144.429688 168.816406 144.871094 169.144531 145.300781 169.496094 C 145.726562 169.847656 146.136719 170.21875 146.527344 170.609375 C 146.917969 171 147.289062 171.410156 147.640625 171.835938 C 147.992188 172.265625 148.320312 172.707031 148.628906 173.167969 C 148.933594 173.628906 149.21875 174.101562 149.480469 174.589844 C 149.742188 175.078125 149.976562 175.574219 150.1875 176.085938 C 150.398438 176.597656 150.585938 177.117188 150.746094 177.648438 C 150.90625 178.175781 151.042969 178.710938 151.148438 179.253906 C 151.257812 179.796875 151.339844 180.34375 151.390625 180.894531 C 151.445312 181.445312 151.472656 181.996094 151.472656 182.550781 Z M 151.472656 182.550781 " fill-opacity="1" fill-rule="nonzero"/><path fill="#02408b" d="M 369.191406 163.234375 C 369.191406 163.863281 369.132812 164.492188 369.007812 165.109375 C 368.886719 165.730469 368.703125 166.328125 368.460938 166.914062 C 368.21875 167.496094 367.921875 168.050781 367.574219 168.574219 C 367.222656 169.101562 366.824219 169.585938 366.375 170.03125 C 365.929688 170.480469 365.445312 170.878906 364.917969 171.226562 C 364.394531 171.578125 363.839844 171.875 363.257812 172.117188 C 362.675781 172.359375 362.074219 172.539062 361.453125 172.664062 C 360.835938 172.789062 360.210938 172.847656 359.578125 172.847656 C 358.945312 172.847656 358.320312 172.789062 357.703125 172.664062 C 357.082031 172.539062 356.480469 172.359375 355.898438 172.117188 C 355.316406 171.875 354.761719 171.578125 354.234375 171.226562 C 353.710938 170.878906 353.226562 170.480469 352.777344 170.03125 C 352.332031 169.585938 351.933594 169.101562 351.582031 168.574219 C 351.234375 168.050781 350.9375 167.496094 350.695312 166.914062 C 350.453125 166.328125 350.269531 165.730469 350.148438 165.109375 C 350.023438 164.492188 349.964844 163.863281 349.964844 163.234375 C 349.964844 162.601562 350.023438 161.976562 350.148438 161.359375 C 350.269531 160.738281 350.453125 160.136719 350.695312 159.554688 C 350.9375 158.972656 351.234375 158.417969 351.582031 157.890625 C 351.933594 157.367188 352.332031 156.882812 352.777344 156.433594 C 353.226562 155.988281 353.710938 155.589844 354.234375 155.238281 C 354.761719 154.886719 355.316406 154.59375 355.898438 154.351562 C 356.480469 154.109375 357.082031 153.925781 357.703125 153.804688 C 358.320312 153.679688 358.945312 153.617188 359.578125 153.617188 C 360.210938 153.617188 360.835938 153.679688 361.453125 153.804688 C 362.074219 153.925781 362.675781 154.109375 363.257812 154.351562 C 363.839844 154.59375 364.394531 154.886719 364.917969 155.238281 C 365.445312 155.589844 365.929688 155.988281 366.375 156.433594 C 366.824219 156.882812 367.222656 157.367188 367.574219 157.890625 C 367.921875 158.417969 368.21875 158.972656 368.460938 159.554688 C 368.703125 160.136719 368.886719 160.738281 369.007812 161.359375 C 369.132812 161.976562 369.191406 162.601562 369.191406 163.234375 Z M 369.191406 163.234375 " fill-opacity="1" fill-rule="nonzero"/><path fill="#02408b" d="M 218.71875 18.238281 C 218.71875 18.871094 218.660156 19.496094 218.535156 20.117188 C 218.414062 20.734375 218.230469 21.335938 217.988281 21.917969 C 217.746094 22.503906 217.449219 23.058594 217.101562 23.582031 C 216.75 24.105469 216.351562 24.59375 215.90625 25.039062 C 215.457031 25.484375 214.972656 25.882812 214.449219 26.234375 C 213.921875 26.585938 213.367188 26.882812 212.785156 27.125 C 212.203125 27.363281 211.601562 27.546875 210.980469 27.671875 C 210.363281 27.792969 209.738281 27.855469 209.105469 27.855469 C 208.472656 27.855469 207.847656 27.792969 207.230469 27.671875 C 206.609375 27.546875 206.007812 27.363281 205.425781 27.125 C 204.84375 26.882812 204.289062 26.585938 203.765625 26.234375 C 203.238281 25.882812 202.753906 25.484375 202.308594 25.039062 C 201.859375 24.59375 201.460938 24.105469 201.109375 23.582031 C 200.761719 23.058594 200.464844 22.503906 200.222656 21.917969 C 199.980469 21.335938 199.796875 20.734375 199.675781 20.117188 C 199.550781 19.496094 199.492188 18.871094 199.492188 18.238281 C 199.492188 17.609375 199.550781 16.984375 199.675781 16.363281 C 199.796875 15.746094 199.980469 15.144531 200.222656 14.558594 C 200.464844 13.976562 200.761719 13.421875 201.109375 12.898438 C 201.460938 12.375 201.859375 11.886719 202.308594 11.441406 C 202.753906 10.996094 203.238281 10.597656 203.765625 10.246094 C 204.289062 9.894531 204.84375 9.597656 205.425781 9.355469 C 206.007812 9.117188 206.609375 8.933594 207.230469 8.808594 C 207.847656 8.6875 208.472656 8.625 209.105469 8.625 C 209.738281 8.625 210.363281 8.6875 210.980469 8.808594 C 211.601562 8.933594 212.203125 9.117188 212.785156 9.355469 C 213.367188 9.597656 213.921875 9.894531 214.449219 10.246094 C 214.972656 10.597656 215.457031 10.996094 215.90625 11.441406 C 216.351562 11.886719 216.75 12.375 217.101562 12.898438 C 217.449219 13.421875 217.746094 13.976562 217.988281 14.558594 C 218.230469 15.144531 218.414062 15.746094 218.535156 16.363281 C 218.660156 16.984375 218.71875 17.609375 218.71875 18.238281 Z M 218.71875 18.238281 " fill-opacity="1" fill-rule="nonzero"/><path fill="#02408b" d="M 121.375 348.789062 C 121.375 349.578125 121.296875 350.363281 121.144531 351.136719 C 120.988281 351.910156 120.761719 352.664062 120.457031 353.394531 C 120.15625 354.125 119.785156 354.816406 119.347656 355.476562 C 118.90625 356.132812 118.410156 356.738281 117.851562 357.296875 C 117.292969 357.855469 116.683594 358.355469 116.027344 358.796875 C 115.371094 359.234375 114.675781 359.605469 113.945312 359.90625 C 113.214844 360.210938 112.464844 360.4375 111.6875 360.59375 C 110.914062 360.746094 110.128906 360.824219 109.339844 360.824219 C 108.550781 360.824219 107.769531 360.746094 106.992188 360.59375 C 106.21875 360.4375 105.464844 360.210938 104.734375 359.90625 C 104.003906 359.605469 103.3125 359.234375 102.65625 358.796875 C 101.996094 358.355469 101.390625 357.855469 100.832031 357.296875 C 100.273438 356.738281 99.773438 356.132812 99.335938 355.476562 C 98.894531 354.816406 98.523438 354.125 98.222656 353.394531 C 97.921875 352.664062 97.691406 351.910156 97.539062 351.136719 C 97.382812 350.363281 97.308594 349.578125 97.308594 348.789062 C 97.308594 348 97.382812 347.214844 97.539062 346.441406 C 97.691406 345.667969 97.921875 344.914062 98.222656 344.183594 C 98.523438 343.453125 98.894531 342.761719 99.335938 342.105469 C 99.773438 341.445312 100.273438 340.839844 100.832031 340.28125 C 101.390625 339.722656 101.996094 339.222656 102.65625 338.785156 C 103.3125 338.34375 104.003906 337.972656 104.734375 337.671875 C 105.464844 337.371094 106.21875 337.140625 106.992188 336.988281 C 107.769531 336.832031 108.550781 336.753906 109.339844 336.753906 C 110.128906 336.753906 110.914062 336.832031 111.6875 336.988281 C 112.464844 337.140625 113.214844 337.371094 113.945312 337.671875 C 114.675781 337.972656 115.371094 338.34375 116.027344 338.785156 C 116.683594 339.222656 117.292969 339.722656 117.851562 340.28125 C 118.410156 340.839844 118.90625 341.445312 119.347656 342.105469 C 119.785156 342.761719 120.15625 343.453125 120.457031 344.183594 C 120.761719 344.914062 120.988281 345.667969 121.144531 346.441406 C 121.296875 347.214844 121.375 348 121.375 348.789062 Z M 121.375 348.789062 " fill-opacity="1" fill-rule="nonzero"/><path fill="#02408b" d="M 248.964844 354.921875 C 248.964844 355.59375 248.898438 356.257812 248.769531 356.917969 C 248.636719 357.574219 248.441406 358.214844 248.1875 358.832031 C 247.929688 359.453125 247.613281 360.042969 247.242188 360.601562 C 246.867188 361.160156 246.445312 361.675781 245.972656 362.148438 C 245.496094 362.625 244.980469 363.046875 244.421875 363.421875 C 243.863281 363.792969 243.273438 364.109375 242.65625 364.363281 C 242.035156 364.621094 241.394531 364.816406 240.738281 364.945312 C 240.078125 365.078125 239.414062 365.144531 238.742188 365.144531 C 238.074219 365.144531 237.40625 365.078125 236.75 364.945312 C 236.089844 364.816406 235.453125 364.621094 234.832031 364.363281 C 234.210938 364.109375 233.625 363.792969 233.066406 363.421875 C 232.507812 363.046875 231.992188 362.625 231.515625 362.148438 C 231.042969 361.675781 230.617188 361.160156 230.246094 360.601562 C 229.871094 360.042969 229.558594 359.453125 229.300781 358.832031 C 229.042969 358.214844 228.851562 357.574219 228.71875 356.917969 C 228.589844 356.257812 228.523438 355.59375 228.523438 354.921875 C 228.523438 354.25 228.589844 353.585938 228.71875 352.929688 C 228.851562 352.269531 229.042969 351.632812 229.300781 351.011719 C 229.558594 350.390625 229.871094 349.800781 230.246094 349.246094 C 230.617188 348.6875 231.042969 348.167969 231.515625 347.695312 C 231.992188 347.222656 232.507812 346.796875 233.066406 346.425781 C 233.625 346.050781 234.210938 345.738281 234.832031 345.480469 C 235.453125 345.222656 236.089844 345.027344 236.75 344.898438 C 237.40625 344.765625 238.074219 344.703125 238.742188 344.703125 C 239.414062 344.703125 240.078125 344.765625 240.738281 344.898438 C 241.394531 345.027344 242.035156 345.222656 242.65625 345.480469 C 243.273438 345.738281 243.863281 346.050781 244.421875 346.425781 C 244.980469 346.796875 245.496094 347.222656 245.972656 347.695312 C 246.445312 348.167969 246.867188 348.6875 247.242188 349.246094 C 247.613281 349.800781 247.929688 350.390625 248.1875 351.011719 C 248.441406 351.632812 248.636719 352.269531 248.769531 352.929688 C 248.898438 353.585938 248.964844 354.25 248.964844 354.921875 Z M 248.964844 354.921875 " fill-opacity="1" fill-rule="nonzero"/><path fill="#02408b" d="M 352.808594 114.109375 C 352.808594 114.78125 352.742188 115.445312 352.609375 116.105469 C 352.480469 116.761719 352.285156 117.402344 352.03125 118.023438 C 351.773438 118.640625 351.457031 119.230469 351.085938 119.789062 C 350.710938 120.347656 350.289062 120.863281 349.8125 121.335938 C 349.339844 121.8125 348.824219 122.234375 348.265625 122.609375 C 347.707031 122.980469 347.117188 123.296875 346.5 123.554688 C 345.878906 123.808594 345.238281 124.003906 344.582031 124.136719 C 343.921875 124.265625 343.257812 124.332031 342.585938 124.332031 C 341.914062 124.332031 341.25 124.265625 340.59375 124.136719 C 339.933594 124.003906 339.296875 123.808594 338.675781 123.554688 C 338.054688 123.296875 337.464844 122.980469 336.910156 122.609375 C 336.351562 122.234375 335.835938 121.8125 335.359375 121.335938 C 334.886719 120.863281 334.460938 120.347656 334.089844 119.789062 C 333.714844 119.230469 333.402344 118.640625 333.144531 118.023438 C 332.886719 117.402344 332.695312 116.761719 332.5625 116.105469 C 332.433594 115.445312 332.367188 114.78125 332.367188 114.109375 C 332.367188 113.441406 332.433594 112.773438 332.5625 112.117188 C 332.695312 111.457031 332.886719 110.820312 333.144531 110.199219 C 333.402344 109.578125 333.714844 108.992188 334.089844 108.433594 C 334.460938 107.875 334.886719 107.359375 335.359375 106.882812 C 335.835938 106.410156 336.351562 105.984375 336.910156 105.613281 C 337.464844 105.238281 338.054688 104.925781 338.675781 104.667969 C 339.296875 104.410156 339.933594 104.21875 340.59375 104.085938 C 341.25 103.957031 341.914062 103.890625 342.585938 103.890625 C 343.257812 103.890625 343.921875 103.957031 344.582031 104.085938 C 345.238281 104.21875 345.878906 104.410156 346.5 104.667969 C 347.117188 104.925781 347.707031 105.238281 348.265625 105.613281 C 348.824219 105.984375 349.339844 106.410156 349.8125 106.882812 C 350.289062 107.359375 350.710938 107.875 351.085938 108.433594 C 351.457031 108.992188 351.773438 109.578125 352.03125 110.199219 C 352.285156 110.820312 352.480469 111.457031 352.609375 112.117188 C 352.742188 112.773438 352.808594 113.441406 352.808594 114.109375 Z M 352.808594 114.109375 " fill-opacity="1" fill-rule="nonzero"/><path fill="#02408b" d="M 327.917969 72.945312 C 327.917969 73.617188 327.851562 74.28125 327.71875 74.941406 C 327.589844 75.597656 327.394531 76.238281 327.140625 76.859375 C 326.882812 77.476562 326.566406 78.066406 326.195312 78.625 C 325.820312 79.183594 325.398438 79.699219 324.921875 80.175781 C 324.449219 80.648438 323.933594 81.070312 323.375 81.445312 C 322.816406 81.816406 322.226562 82.132812 321.609375 82.390625 C 320.988281 82.644531 320.347656 82.839844 319.691406 82.972656 C 319.03125 83.101562 318.367188 83.167969 317.695312 83.167969 C 317.023438 83.167969 316.359375 83.101562 315.703125 82.972656 C 315.042969 82.839844 314.40625 82.644531 313.785156 82.390625 C 313.164062 82.132812 312.574219 81.816406 312.019531 81.445312 C 311.460938 81.070312 310.945312 80.648438 310.46875 80.175781 C 309.996094 79.699219 309.570312 79.183594 309.199219 78.625 C 308.824219 78.066406 308.511719 77.476562 308.253906 76.859375 C 307.996094 76.238281 307.804688 75.597656 307.671875 74.941406 C 307.542969 74.28125 307.476562 73.617188 307.476562 72.945312 C 307.476562 72.277344 307.542969 71.609375 307.671875 70.953125 C 307.804688 70.292969 307.996094 69.65625 308.253906 69.035156 C 308.511719 68.414062 308.824219 67.828125 309.199219 67.269531 C 309.570312 66.710938 309.996094 66.195312 310.46875 65.71875 C 310.945312 65.246094 311.460938 64.820312 312.019531 64.449219 C 312.574219 64.074219 313.164062 63.761719 313.785156 63.503906 C 314.40625 63.246094 315.042969 63.054688 315.703125 62.921875 C 316.359375 62.792969 317.023438 62.726562 317.695312 62.726562 C 318.367188 62.726562 319.03125 62.792969 319.691406 62.921875 C 320.347656 63.054688 320.988281 63.246094 321.609375 63.503906 C 322.226562 63.761719 322.816406 64.074219 323.375 64.449219 C 323.933594 64.820312 324.449219 65.246094 324.921875 65.71875 C 325.398438 66.195312 325.820312 66.710938 326.195312 67.269531 C 326.566406 67.828125 326.882812 68.414062 327.140625 69.035156 C 327.394531 69.65625 327.589844 70.292969 327.71875 70.953125 C 327.851562 71.609375 327.917969 72.277344 327.917969 72.945312 Z M 327.917969 72.945312 " fill-opacity="1" fill-rule="nonzero"/><path fill="#02408b" d="M 320.199219 102.183594 C 320.199219 102.5625 320.160156 102.9375 320.085938 103.3125 C 320.011719 103.683594 319.902344 104.046875 319.757812 104.398438 C 319.609375 104.75 319.433594 105.085938 319.222656 105.402344 C 319.007812 105.71875 318.769531 106.007812 318.5 106.277344 C 318.230469 106.546875 317.9375 106.789062 317.621094 107 C 317.304688 107.210938 316.972656 107.390625 316.621094 107.535156 C 316.269531 107.679688 315.90625 107.789062 315.535156 107.863281 C 315.160156 107.9375 314.785156 107.976562 314.402344 107.976562 C 314.023438 107.976562 313.648438 107.9375 313.273438 107.863281 C 312.898438 107.789062 312.539062 107.679688 312.1875 107.535156 C 311.835938 107.390625 311.5 107.210938 311.183594 107 C 310.867188 106.789062 310.574219 106.546875 310.308594 106.277344 C 310.039062 106.007812 309.796875 105.71875 309.585938 105.402344 C 309.375 105.085938 309.195312 104.75 309.050781 104.398438 C 308.90625 104.046875 308.796875 103.683594 308.722656 103.3125 C 308.648438 102.9375 308.609375 102.5625 308.609375 102.183594 C 308.609375 101.800781 308.648438 101.425781 308.722656 101.050781 C 308.796875 100.679688 308.90625 100.316406 309.050781 99.964844 C 309.195312 99.613281 309.375 99.28125 309.585938 98.964844 C 309.796875 98.648438 310.039062 98.355469 310.308594 98.085938 C 310.574219 97.816406 310.867188 97.574219 311.183594 97.363281 C 311.5 97.152344 311.835938 96.976562 312.1875 96.828125 C 312.539062 96.683594 312.898438 96.574219 313.273438 96.5 C 313.648438 96.425781 314.023438 96.386719 314.402344 96.386719 C 314.785156 96.386719 315.160156 96.425781 315.535156 96.5 C 315.90625 96.574219 316.269531 96.683594 316.621094 96.828125 C 316.972656 96.976562 317.304688 97.152344 317.621094 97.363281 C 317.9375 97.574219 318.230469 97.816406 318.5 98.085938 C 318.769531 98.355469 319.007812 98.648438 319.222656 98.964844 C 319.433594 99.28125 319.609375 99.613281 319.757812 99.964844 C 319.902344 100.316406 320.011719 100.679688 320.085938 101.050781 C 320.160156 101.425781 320.199219 101.800781 320.199219 102.183594 Z M 320.199219 102.183594 " fill-opacity="1" fill-rule="nonzero"/><path fill="#02408b" d="M 38.203125 134.652344 C 38.203125 135.5 38.121094 136.335938 37.957031 137.164062 C 37.792969 137.996094 37.546875 138.800781 37.226562 139.582031 C 36.902344 140.363281 36.503906 141.105469 36.035156 141.808594 C 35.566406 142.511719 35.03125 143.164062 34.433594 143.761719 C 33.835938 144.359375 33.183594 144.890625 32.480469 145.363281 C 31.777344 145.832031 31.035156 146.226562 30.253906 146.550781 C 29.472656 146.875 28.667969 147.121094 27.839844 147.285156 C 27.007812 147.449219 26.171875 147.53125 25.324219 147.53125 C 24.480469 147.53125 23.640625 147.449219 22.8125 147.285156 C 21.984375 147.121094 21.179688 146.875 20.398438 146.550781 C 19.617188 146.226562 18.875 145.832031 18.171875 145.363281 C 17.46875 144.890625 16.816406 144.359375 16.21875 143.761719 C 15.621094 143.164062 15.085938 142.511719 14.617188 141.808594 C 14.148438 141.105469 13.75 140.363281 13.425781 139.582031 C 13.101562 138.800781 12.859375 137.996094 12.695312 137.164062 C 12.527344 136.335938 12.445312 135.5 12.445312 134.652344 C 12.445312 133.808594 12.527344 132.96875 12.695312 132.140625 C 12.859375 131.3125 13.101562 130.503906 13.425781 129.722656 C 13.75 128.941406 14.148438 128.199219 14.617188 127.496094 C 15.085938 126.792969 15.621094 126.144531 16.21875 125.546875 C 16.816406 124.949219 17.46875 124.414062 18.171875 123.945312 C 18.875 123.472656 19.617188 123.078125 20.398438 122.753906 C 21.179688 122.429688 21.984375 122.1875 22.8125 122.019531 C 23.640625 121.855469 24.480469 121.773438 25.324219 121.773438 C 26.171875 121.773438 27.007812 121.855469 27.839844 122.019531 C 28.667969 122.1875 29.472656 122.429688 30.253906 122.753906 C 31.035156 123.078125 31.777344 123.472656 32.480469 123.945312 C 33.183594 124.414062 33.835938 124.949219 34.433594 125.546875 C 35.03125 126.144531 35.566406 126.792969 36.035156 127.496094 C 36.503906 128.199219 36.902344 128.941406 37.226562 129.722656 C 37.546875 130.503906 37.792969 131.3125 37.957031 132.140625 C 38.121094 132.96875 38.203125 133.808594 38.203125 134.652344 Z M 38.203125 134.652344 " fill-opacity="1" fill-rule="nonzero"/><path fill="#02408b" d="M 130.578125 258.847656 C 130.578125 259.691406 130.496094 260.53125 130.328125 261.359375 C 130.164062 262.191406 129.921875 262.996094 129.597656 263.777344 C 129.273438 264.558594 128.875 265.300781 128.40625 266.003906 C 127.9375 266.707031 127.402344 267.355469 126.804688 267.953125 C 126.207031 268.550781 125.554688 269.085938 124.851562 269.554688 C 124.148438 270.027344 123.40625 270.421875 122.625 270.746094 C 121.84375 271.070312 121.039062 271.3125 120.210938 271.480469 C 119.378906 271.644531 118.542969 271.726562 117.699219 271.726562 C 116.851562 271.726562 116.015625 271.644531 115.183594 271.480469 C 114.355469 271.3125 113.550781 271.070312 112.769531 270.746094 C 111.988281 270.421875 111.246094 270.027344 110.542969 269.554688 C 109.839844 269.085938 109.1875 268.550781 108.589844 267.953125 C 107.992188 267.355469 107.457031 266.707031 106.988281 266.003906 C 106.519531 265.300781 106.121094 264.558594 105.796875 263.777344 C 105.476562 262.996094 105.230469 262.191406 105.066406 261.359375 C 104.902344 260.53125 104.816406 259.691406 104.816406 258.847656 C 104.816406 258 104.902344 257.164062 105.066406 256.335938 C 105.230469 255.503906 105.476562 254.699219 105.796875 253.917969 C 106.121094 253.136719 106.519531 252.394531 106.988281 251.691406 C 107.457031 250.988281 107.992188 250.339844 108.589844 249.742188 C 109.1875 249.140625 109.839844 248.609375 110.542969 248.136719 C 111.246094 247.667969 111.988281 247.273438 112.769531 246.949219 C 113.550781 246.625 114.355469 246.378906 115.183594 246.214844 C 116.015625 246.050781 116.851562 245.96875 117.699219 245.96875 C 118.542969 245.96875 119.378906 246.050781 120.210938 246.214844 C 121.039062 246.378906 121.84375 246.625 122.625 246.949219 C 123.40625 247.273438 124.148438 247.667969 124.851562 248.136719 C 125.554688 248.609375 126.207031 249.140625 126.804688 249.742188 C 127.402344 250.339844 127.9375 250.988281 128.40625 251.691406 C 128.875 252.394531 129.273438 253.136719 129.597656 253.917969 C 129.921875 254.699219 130.164062 255.503906 130.328125 256.335938 C 130.496094 257.164062 130.578125 258 130.578125 258.847656 Z M 130.578125 258.847656 " fill-opacity="1" fill-rule="nonzero"/><path fill="#02408b" d="M 277.332031 88.992188 C 277.332031 89.71875 277.261719 90.433594 277.121094 91.144531 C 276.980469 91.851562 276.769531 92.542969 276.492188 93.210938 C 276.21875 93.878906 275.878906 94.515625 275.476562 95.117188 C 275.074219 95.71875 274.617188 96.277344 274.105469 96.789062 C 273.59375 97.300781 273.035156 97.757812 272.433594 98.160156 C 271.832031 98.5625 271.195312 98.898438 270.527344 99.175781 C 269.859375 99.453125 269.171875 99.664062 268.460938 99.804688 C 267.75 99.945312 267.035156 100.015625 266.308594 100.015625 C 265.585938 100.015625 264.871094 99.945312 264.160156 99.804688 C 263.449219 99.664062 262.761719 99.453125 262.089844 99.175781 C 261.421875 98.898438 260.789062 98.5625 260.1875 98.160156 C 259.585938 97.757812 259.027344 97.300781 258.515625 96.789062 C 258.003906 96.277344 257.546875 95.71875 257.144531 95.117188 C 256.742188 94.515625 256.402344 93.878906 256.125 93.210938 C 255.847656 92.542969 255.640625 91.851562 255.5 91.144531 C 255.359375 90.433594 255.285156 89.71875 255.285156 88.992188 C 255.285156 88.269531 255.359375 87.550781 255.5 86.84375 C 255.640625 86.132812 255.847656 85.445312 256.125 84.773438 C 256.402344 84.105469 256.742188 83.472656 257.144531 82.867188 C 257.546875 82.265625 258.003906 81.710938 258.515625 81.199219 C 259.027344 80.6875 259.585938 80.230469 260.1875 79.828125 C 260.789062 79.425781 261.421875 79.085938 262.089844 78.808594 C 262.761719 78.53125 263.449219 78.324219 264.160156 78.183594 C 264.871094 78.039062 265.585938 77.96875 266.308594 77.96875 C 267.035156 77.96875 267.75 78.039062 268.460938 78.183594 C 269.171875 78.324219 269.859375 78.53125 270.527344 78.808594 C 271.195312 79.085938 271.832031 79.425781 272.433594 79.828125 C 273.035156 80.230469 273.59375 80.6875 274.105469 81.199219 C 274.617188 81.710938 275.074219 82.265625 275.476562 82.867188 C 275.878906 83.472656 276.21875 84.105469 276.492188 84.773438 C 276.769531 85.445312 276.980469 86.132812 277.121094 86.84375 C 277.261719 87.550781 277.332031 88.269531 277.332031 88.992188 Z M 277.332031 88.992188 " fill-opacity="1" fill-rule="nonzero"/><path fill="#02408b" d="M 225.425781 274.886719 C 225.425781 275.609375 225.355469 276.328125 225.214844 277.035156 C 225.074219 277.746094 224.863281 278.4375 224.585938 279.105469 C 224.308594 279.773438 223.96875 280.410156 223.566406 281.011719 C 223.164062 281.613281 222.707031 282.167969 222.195312 282.679688 C 221.683594 283.191406 221.128906 283.648438 220.527344 284.050781 C 219.925781 284.453125 219.289062 284.792969 218.621094 285.070312 C 217.953125 285.347656 217.261719 285.554688 216.554688 285.699219 C 215.84375 285.839844 215.125 285.910156 214.402344 285.910156 C 213.679688 285.910156 212.960938 285.839844 212.253906 285.699219 C 211.542969 285.554688 210.851562 285.347656 210.183594 285.070312 C 209.515625 284.792969 208.878906 284.453125 208.277344 284.050781 C 207.675781 283.648438 207.121094 283.191406 206.609375 282.679688 C 206.097656 282.167969 205.640625 281.613281 205.238281 281.011719 C 204.835938 280.410156 204.496094 279.773438 204.21875 279.105469 C 203.941406 278.4375 203.730469 277.746094 203.589844 277.035156 C 203.449219 276.328125 203.378906 275.609375 203.378906 274.886719 C 203.378906 274.164062 203.449219 273.445312 203.589844 272.734375 C 203.730469 272.027344 203.941406 271.335938 204.21875 270.667969 C 204.496094 270 204.835938 269.363281 205.238281 268.761719 C 205.640625 268.160156 206.097656 267.601562 206.609375 267.089844 C 207.121094 266.578125 207.675781 266.121094 208.277344 265.722656 C 208.878906 265.320312 209.515625 264.980469 210.183594 264.703125 C 210.851562 264.425781 211.542969 264.214844 212.253906 264.074219 C 212.960938 263.933594 213.679688 263.863281 214.402344 263.863281 C 215.125 263.863281 215.84375 263.933594 216.554688 264.074219 C 217.261719 264.214844 217.953125 264.425781 218.621094 264.703125 C 219.289062 264.980469 219.925781 265.320312 220.527344 265.722656 C 221.128906 266.121094 221.683594 266.578125 222.195312 267.089844 C 222.707031 267.601562 223.164062 268.160156 223.566406 268.761719 C 223.96875 269.363281 224.308594 270 224.585938 270.667969 C 224.863281 271.335938 225.074219 272.027344 225.214844 272.734375 C 225.355469 273.445312 225.425781 274.164062 225.425781 274.886719 Z M 225.425781 274.886719 " fill-opacity="1" fill-rule="nonzero"/><path fill="#02408b" d="M 349.964844 274.886719 C 349.964844 275.609375 349.890625 276.328125 349.75 277.035156 C 349.609375 277.746094 349.402344 278.4375 349.125 279.105469 C 348.847656 279.773438 348.507812 280.410156 348.105469 281.011719 C 347.703125 281.613281 347.246094 282.167969 346.734375 282.679688 C 346.222656 283.191406 345.664062 283.648438 345.0625 284.050781 C 344.460938 284.453125 343.828125 284.792969 343.160156 285.070312 C 342.488281 285.347656 341.800781 285.554688 341.089844 285.699219 C 340.378906 285.839844 339.664062 285.910156 338.941406 285.910156 C 338.214844 285.910156 337.5 285.839844 336.789062 285.699219 C 336.078125 285.554688 335.390625 285.347656 334.722656 285.070312 C 334.054688 284.792969 333.417969 284.453125 332.816406 284.050781 C 332.214844 283.648438 331.65625 283.191406 331.144531 282.679688 C 330.632812 282.167969 330.175781 281.613281 329.773438 281.011719 C 329.371094 280.410156 329.03125 279.773438 328.757812 279.105469 C 328.480469 278.4375 328.269531 277.746094 328.128906 277.035156 C 327.988281 276.328125 327.917969 275.609375 327.917969 274.886719 C 327.917969 274.164062 327.988281 273.445312 328.128906 272.734375 C 328.269531 272.027344 328.480469 271.335938 328.757812 270.667969 C 329.03125 270 329.371094 269.363281 329.773438 268.761719 C 330.175781 268.160156 330.632812 267.601562 331.144531 267.089844 C 331.65625 266.578125 332.214844 266.121094 332.816406 265.722656 C 333.417969 265.320312 334.054688 264.980469 334.722656 264.703125 C 335.390625 264.425781 336.078125 264.214844 336.789062 264.074219 C 337.5 263.933594 338.214844 263.863281 338.941406 263.863281 C 339.664062 263.863281 340.378906 263.933594 341.089844 264.074219 C 341.800781 264.214844 342.488281 264.425781 343.160156 264.703125 C 343.828125 264.980469 344.460938 265.320312 345.0625 265.722656 C 345.664062 266.121094 346.222656 266.578125 346.734375 267.089844 C 347.246094 267.601562 347.703125 268.160156 348.105469 268.761719 C 348.507812 269.363281 348.847656 270 349.125 270.667969 C 349.402344 271.335938 349.609375 272.027344 349.75 272.734375 C 349.890625 273.445312 349.964844 274.164062 349.964844 274.886719 Z M 349.964844 274.886719 " fill-opacity="1" fill-rule="nonzero"/><path fill="#02408b" d="M 49.808594 274.886719 C 49.808594 275.609375 49.738281 276.328125 49.597656 277.035156 C 49.457031 277.746094 49.246094 278.4375 48.96875 279.105469 C 48.691406 279.773438 48.355469 280.410156 47.953125 281.011719 C 47.550781 281.613281 47.09375 282.167969 46.582031 282.679688 C 46.070312 283.191406 45.511719 283.648438 44.910156 284.050781 C 44.308594 284.453125 43.671875 284.792969 43.003906 285.070312 C 42.335938 285.347656 41.648438 285.554688 40.9375 285.699219 C 40.226562 285.839844 39.511719 285.910156 38.785156 285.910156 C 38.0625 285.910156 37.34375 285.839844 36.636719 285.699219 C 35.925781 285.554688 35.238281 285.347656 34.566406 285.070312 C 33.898438 284.792969 33.265625 284.453125 32.664062 284.050781 C 32.058594 283.648438 31.503906 283.191406 30.992188 282.679688 C 30.480469 282.167969 30.023438 281.613281 29.621094 281.011719 C 29.21875 280.410156 28.878906 279.773438 28.601562 279.105469 C 28.324219 278.4375 28.117188 277.746094 27.976562 277.035156 C 27.832031 276.328125 27.761719 275.609375 27.761719 274.886719 C 27.761719 274.164062 27.832031 273.445312 27.976562 272.734375 C 28.117188 272.027344 28.324219 271.335938 28.601562 270.667969 C 28.878906 270 29.21875 269.363281 29.621094 268.761719 C 30.023438 268.160156 30.480469 267.601562 30.992188 267.089844 C 31.503906 266.578125 32.058594 266.121094 32.664062 265.722656 C 33.265625 265.320312 33.898438 264.980469 34.566406 264.703125 C 35.238281 264.425781 35.925781 264.214844 36.636719 264.074219 C 37.34375 263.933594 38.0625 263.863281 38.785156 263.863281 C 39.511719 263.863281 40.226562 263.933594 40.9375 264.074219 C 41.648438 264.214844 42.335938 264.425781 43.003906 264.703125 C 43.671875 264.980469 44.308594 265.320312 44.910156 265.722656 C 45.511719 266.121094 46.070312 266.578125 46.582031 267.089844 C 47.09375 267.601562 47.550781 268.160156 47.953125 268.761719 C 48.355469 269.363281 48.691406 270 48.96875 270.667969 C 49.246094 271.335938 49.457031 272.027344 49.597656 272.734375 C 49.738281 273.445312 49.808594 274.164062 49.808594 274.886719 Z M 49.808594 274.886719 " fill-opacity="1" fill-rule="nonzero"/><path fill="#02408b" d="M 19.082031 188.414062 C 19.082031 188.851562 19.039062 189.28125 18.953125 189.710938 C 18.871094 190.136719 18.742188 190.550781 18.578125 190.953125 C 18.410156 191.359375 18.207031 191.738281 17.964844 192.101562 C 17.722656 192.464844 17.445312 192.800781 17.136719 193.109375 C 16.828125 193.417969 16.496094 193.691406 16.132812 193.933594 C 15.769531 194.175781 15.386719 194.378906 14.984375 194.546875 C 14.582031 194.714844 14.167969 194.839844 13.738281 194.925781 C 13.3125 195.011719 12.878906 195.050781 12.445312 195.050781 C 12.007812 195.050781 11.578125 195.011719 11.148438 194.925781 C 10.722656 194.839844 10.308594 194.714844 9.90625 194.546875 C 9.5 194.378906 9.121094 194.175781 8.757812 193.933594 C 8.394531 193.691406 8.058594 193.417969 7.75 193.109375 C 7.441406 192.800781 7.167969 192.464844 6.925781 192.101562 C 6.683594 191.738281 6.480469 191.359375 6.3125 190.953125 C 6.144531 190.550781 6.019531 190.136719 5.933594 189.710938 C 5.847656 189.28125 5.808594 188.851562 5.808594 188.414062 C 5.808594 187.980469 5.847656 187.546875 5.933594 187.121094 C 6.019531 186.691406 6.144531 186.277344 6.3125 185.875 C 6.480469 185.472656 6.683594 185.089844 6.925781 184.726562 C 7.167969 184.363281 7.441406 184.03125 7.75 183.722656 C 8.058594 183.414062 8.394531 183.136719 8.757812 182.894531 C 9.121094 182.652344 9.5 182.449219 9.90625 182.28125 C 10.308594 182.117188 10.722656 181.988281 11.148438 181.90625 C 11.578125 181.820312 12.007812 181.777344 12.445312 181.777344 C 12.878906 181.777344 13.3125 181.820312 13.738281 181.90625 C 14.167969 181.988281 14.582031 182.117188 14.984375 182.28125 C 15.386719 182.449219 15.769531 182.652344 16.132812 182.894531 C 16.496094 183.136719 16.828125 183.414062 17.136719 183.722656 C 17.445312 184.03125 17.722656 184.363281 17.964844 184.726562 C 18.207031 185.089844 18.410156 185.472656 18.578125 185.875 C 18.742188 186.277344 18.871094 186.691406 18.953125 187.121094 C 19.039062 187.546875 19.082031 187.980469 19.082031 188.414062 Z M 19.082031 188.414062 " fill-opacity="1" fill-rule="nonzero"/><path fill="#02408b" d="M 176.949219 87.769531 C 176.949219 88.496094 176.875 89.210938 176.734375 89.921875 C 176.59375 90.632812 176.386719 91.320312 176.109375 91.988281 C 175.832031 92.65625 175.492188 93.292969 175.089844 93.894531 C 174.6875 94.496094 174.230469 95.054688 173.71875 95.566406 C 173.207031 96.078125 172.648438 96.535156 172.046875 96.9375 C 171.445312 97.339844 170.8125 97.675781 170.144531 97.953125 C 169.472656 98.230469 168.785156 98.441406 168.074219 98.582031 C 167.363281 98.722656 166.648438 98.792969 165.925781 98.792969 C 165.199219 98.792969 164.484375 98.722656 163.773438 98.582031 C 163.0625 98.441406 162.375 98.230469 161.707031 97.953125 C 161.039062 97.675781 160.402344 97.339844 159.800781 96.9375 C 159.199219 96.535156 158.640625 96.078125 158.128906 95.566406 C 157.617188 95.054688 157.160156 94.496094 156.757812 93.894531 C 156.355469 93.292969 156.015625 92.65625 155.742188 91.988281 C 155.464844 91.320312 155.253906 90.632812 155.113281 89.921875 C 154.972656 89.210938 154.902344 88.496094 154.902344 87.769531 C 154.902344 87.046875 154.972656 86.328125 155.113281 85.621094 C 155.253906 84.910156 155.464844 84.222656 155.742188 83.550781 C 156.015625 82.882812 156.355469 82.25 156.757812 81.648438 C 157.160156 81.042969 157.617188 80.488281 158.128906 79.976562 C 158.640625 79.464844 159.199219 79.007812 159.800781 78.605469 C 160.402344 78.203125 161.039062 77.863281 161.707031 77.585938 C 162.375 77.308594 163.0625 77.101562 163.773438 76.960938 C 164.484375 76.816406 165.199219 76.746094 165.925781 76.746094 C 166.648438 76.746094 167.363281 76.816406 168.074219 76.960938 C 168.785156 77.101562 169.472656 77.308594 170.144531 77.585938 C 170.8125 77.863281 171.445312 78.203125 172.046875 78.605469 C 172.648438 79.007812 173.207031 79.464844 173.71875 79.976562 C 174.230469 80.488281 174.6875 81.042969 175.089844 81.644531 C 175.492188 82.25 175.832031 82.882812 176.109375 83.550781 C 176.386719 84.222656 176.59375 84.910156 176.734375 85.621094 C 176.875 86.328125 176.949219 87.046875 176.949219 87.769531 Z M 176.949219 87.769531 " fill-opacity="1" fill-rule="nonzero"/><path fill="#02408b" d="M 81.773438 58.640625 C 81.773438 59.175781 81.71875 59.703125 81.617188 60.230469 C 81.511719 60.753906 81.355469 61.265625 81.152344 61.757812 C 80.945312 62.253906 80.695312 62.722656 80.398438 63.167969 C 80.101562 63.613281 79.761719 64.023438 79.382812 64.402344 C 79.007812 64.78125 78.59375 65.121094 78.148438 65.417969 C 77.703125 65.714844 77.234375 65.964844 76.738281 66.171875 C 76.246094 66.375 75.734375 66.53125 75.210938 66.632812 C 74.683594 66.738281 74.15625 66.792969 73.621094 66.792969 C 73.085938 66.792969 72.554688 66.738281 72.03125 66.632812 C 71.503906 66.53125 70.996094 66.375 70.5 66.171875 C 70.003906 65.964844 69.535156 65.714844 69.089844 65.417969 C 68.644531 65.121094 68.234375 64.78125 67.855469 64.402344 C 67.476562 64.023438 67.140625 63.613281 66.839844 63.167969 C 66.542969 62.722656 66.292969 62.253906 66.089844 61.757812 C 65.882812 61.265625 65.730469 60.753906 65.625 60.230469 C 65.519531 59.703125 65.46875 59.175781 65.46875 58.640625 C 65.46875 58.101562 65.519531 57.574219 65.625 57.046875 C 65.730469 56.523438 65.882812 56.011719 66.089844 55.519531 C 66.292969 55.023438 66.542969 54.554688 66.839844 54.109375 C 67.140625 53.664062 67.476562 53.253906 67.855469 52.875 C 68.234375 52.496094 68.644531 52.15625 69.089844 51.859375 C 69.535156 51.5625 70.003906 51.3125 70.5 51.105469 C 70.996094 50.902344 71.503906 50.746094 72.03125 50.644531 C 72.554688 50.539062 73.085938 50.484375 73.621094 50.484375 C 74.15625 50.484375 74.683594 50.539062 75.210938 50.644531 C 75.734375 50.746094 76.246094 50.902344 76.738281 51.105469 C 77.234375 51.3125 77.703125 51.5625 78.148438 51.859375 C 78.59375 52.15625 79.007812 52.496094 79.382812 52.875 C 79.761719 53.253906 80.101562 53.664062 80.398438 54.109375 C 80.695312 54.554688 80.945312 55.023438 81.152344 55.519531 C 81.355469 56.011719 81.511719 56.523438 81.617188 57.046875 C 81.71875 57.574219 81.773438 58.101562 81.773438 58.640625 Z M 81.773438 58.640625 " fill-opacity="1" fill-rule="nonzero"/></svg>